<svg width="87" height="125" viewBox="0 0 87 125" fill="none" xmlns="http://www.w3.org/2000/svg">
<path d="M35.3618 115.471L35.6097 115.859C35.6097 115.836 35.6097 115.816 35.6097 115.796C35.5634 115.736 35.4808 115.627 35.3618 115.471Z" fill="#E1BB95"/>
<path d="M67.8451 60.3704C66.1365 54.9024 62.3954 50.0338 58.0793 46.6158C55.6011 44.6442 52.726 43.234 49.652 42.4825C46.4527 41.7696 43.1494 41.6573 39.9093 42.1513C37.2685 42.4707 34.6995 43.2297 32.3081 44.3968C29.9683 45.5825 28.0119 47.4074 26.1545 49.2952C23.1306 52.3787 20.6189 56.1212 19.2904 60.3737C17.2876 66.7857 17.443 73.8567 17.5157 80.5336C17.5157 80.6098 17.5157 80.6959 17.5157 80.7787C17.5421 82.7659 17.6545 87.2834 17.7668 87.7934L35.3618 115.471L35.6097 115.859C35.1801 125.795 43.4157 124.983 43.5149 124.983C43.5149 124.983 51.896 125.801 51.4729 115.869L51.7836 115.382L69.372 87.7934C69.4909 87.2635 69.6033 82.3651 69.6231 80.5336C69.6991 73.8567 69.8479 66.7857 67.8451 60.3704Z" fill="#E1BB95"/>
<path d="M48.3466 77.2713H38.2701V113.673H48.3466V77.2713Z" fill="#D19254"/>
<path d="M36.7928 50.1398C34.9223 50.1398 33.3922 48.5103 33.3922 46.5231L36.5813 1.86796C36.5813 -0.119217 37.087 0.00332556 37.087 0.00332556C37.087 0.00332556 37.6455 -0.122529 37.6455 1.86796L40.1968 46.5231C40.1968 48.5103 38.6667 50.1398 36.7928 50.1398Z" fill="#472F22"/>
<path d="M50.3493 50.1398C48.4788 50.1398 46.9486 48.5103 46.9486 46.5231L50.1345 1.86796C50.1345 -0.119217 50.6401 0.00332556 50.6401 0.00332556C50.6401 0.00332556 51.1986 -0.122529 51.1986 1.86796L53.75 46.5231C53.75 48.5103 52.2165 50.1398 50.3493 50.1398Z" fill="#472F22"/>
<path d="M26.7692 63.6625C33.1872 63.6625 38.4452 68.9153 38.9674 75.5855C40.4065 74.9132 41.9688 74.5464 43.5562 74.5082C45.1435 74.47 46.7216 74.7613 48.1912 75.3636C48.687 68.4946 54.0738 63.0829 60.6571 63.0829C63.8614 63.0981 66.9285 64.3884 69.1836 66.6697C68.9279 64.5374 68.4856 62.4317 67.8617 60.377C66.153 54.909 62.412 50.0404 58.0958 46.6225C55.6176 44.6508 52.7426 43.2406 49.6685 42.4891C46.4693 41.7762 43.1659 41.6639 39.9258 42.1579C37.2851 42.4774 34.7161 43.2363 32.3247 44.4034C29.9848 45.5891 28.0284 47.414 26.1711 49.3018C23.1504 52.3853 20.6354 56.1278 19.3069 60.3803C18.5754 62.7951 18.0861 65.277 17.8462 67.7892C18.9544 66.5041 20.3238 65.4711 21.8627 64.7594C23.4015 64.0477 25.0744 63.6737 26.7692 63.6625Z" fill="#D19254"/>
<path d="M58.4957 46.9603C58.3569 46.8444 58.2181 46.7284 58.076 46.6291C55.5978 44.6574 52.7227 43.2473 49.6487 42.4958C46.4494 41.7828 43.1461 41.6705 39.906 42.1646C37.2653 42.484 34.6962 43.243 32.3048 44.4101C30.9274 45.1305 29.6451 46.0206 28.4877 47.0596L43.5644 102.167L58.4957 46.9603Z" fill="#FDE7C4"/>
<path d="M81.9601 45.3043L82.0262 45.2347C82.3731 44.7671 82.6001 44.2212 82.6872 43.645C83.6489 39.611 84.6701 35.6036 85.5128 31.5398C85.6417 30.9171 85.7706 30.2912 85.8796 29.6652C85.9557 29.3574 85.9956 29.0417 85.9986 28.7246C85.9995 28.6435 85.9842 28.563 85.9536 28.4878C85.9231 28.4127 85.8778 28.3444 85.8206 28.2871C85.7633 28.2297 85.6952 28.1843 85.6202 28.1537C85.5452 28.123 85.4649 28.1077 85.3839 28.1086C85.2683 28.0589 84.9675 28.208 84.8518 28.2411C84.3859 28.3669 83.9199 28.4961 83.4539 28.6253C81.9116 29.0669 80.3694 29.5085 78.8271 29.9501C76.9059 30.5043 74.9869 31.0651 73.0701 31.6325C71.2855 32.1624 69.5042 32.6957 67.7262 33.2488C66.5628 33.6098 65.4128 34.0006 64.2528 34.3947C64.1193 34.4275 63.9978 34.4976 63.9025 34.5967C63.8325 34.6967 63.782 34.8091 63.7537 34.9279C63.1192 37.0708 62.4814 39.2103 61.8568 41.3564C61.4271 42.8402 60.9975 44.3372 60.5877 45.811C60.1977 47.2285 59.9267 48.7189 59.4343 50.0967C59.2796 50.464 59.2074 50.8609 59.2228 51.2592C59.2306 51.4542 59.2943 51.6429 59.4062 51.8026C59.5182 51.9624 59.6736 52.0865 59.854 52.1601C60.1404 52.2109 60.4356 52.1691 60.6968 52.0408C62.0881 51.5308 63.5257 51.1466 64.9402 50.716C67.3626 49.9907 80.268 46.1753 81.0281 45.864C81.3726 45.7409 81.6894 45.5507 81.9601 45.3043Z" fill="#955724"/>
<path d="M57.7257 52.6834H57.8017C58.8592 52.478 58.7932 54.6904 59.3517 53.7167C59.9102 52.743 61.1462 48.5865 61.4304 47.4869L63.3638 40.0118C63.5753 39.1904 63.8132 38.326 64.3916 37.7365C64.9264 37.2638 65.5686 36.9295 66.2621 36.7628C70.2059 35.5064 74.164 34.2998 78.1364 33.1428C79.736 32.6758 81.319 32.2519 82.945 31.9041C84.2867 31.616 85.7409 31.202 86.5307 29.8971C86.921 29.2851 87.075 28.5514 86.9637 27.8337C86.9525 27.6984 86.9132 27.5669 86.8483 27.4477C86.7834 27.3285 86.6944 27.2242 86.5869 27.1415C86.3476 27.0399 86.0792 27.0305 85.8334 27.115C78.8932 28.6153 71.953 30.427 65.1418 32.4837C64.2858 32.742 63.3935 33.0236 62.7391 33.6661C61.979 34.4113 61.6585 35.5208 61.3676 36.574C60.5381 39.5316 56.5293 52.8291 57.7257 52.6834Z" fill="#D19254"/>
<path d="M5.94871 45.864C6.70882 46.1754 19.6142 49.9907 22.0367 50.7161C23.4512 51.14 24.8921 51.5209 26.2801 52.0408C26.5413 52.1691 26.8364 52.2109 27.1228 52.1601C27.306 52.0868 27.4638 51.9616 27.5771 51.7999C27.6904 51.6381 27.7542 51.4468 27.7607 51.2493C27.7761 50.8509 27.7038 50.4541 27.5492 50.0868C27.0567 48.709 26.7857 47.2186 26.3958 45.8011C25.986 44.3107 25.5563 42.8203 25.1267 41.3465C24.5021 39.2004 23.8643 37.0608 23.2297 34.918C23.2015 34.7992 23.151 34.6868 23.081 34.5868C22.9856 34.4876 22.8642 34.4176 22.7307 34.3848C21.574 33.9906 20.4173 33.5998 19.2573 33.2388C17.4793 32.6857 15.698 32.1525 13.9134 31.6226C11.9966 31.0551 10.0776 30.4943 8.15634 29.9401C6.61408 29.4985 5.07182 29.0569 3.52956 28.6153C3.06358 28.4862 2.5976 28.3537 2.13162 28.2311C2.01925 28.2013 1.71851 28.049 1.59954 28.0987C1.51884 28.0987 1.43895 28.1147 1.36452 28.146C1.29009 28.1772 1.2226 28.223 1.16601 28.2807C1.10941 28.3383 1.06483 28.4067 1.03486 28.4817C1.00489 28.5568 0.990129 28.6371 0.991444 28.718C0.994436 29.0351 1.03436 29.3508 1.11042 29.6586C1.21948 30.2879 1.34837 30.9105 1.47726 31.5332C2.31338 35.6003 3.34119 39.611 4.29629 43.6417C4.38334 44.2179 4.61032 44.7638 4.95726 45.2314L5.02335 45.301C5.29184 45.5478 5.6063 45.7392 5.94871 45.864Z" fill="#955724"/>
<path d="M25.6456 36.5707C25.3548 35.5175 25.0342 34.4079 24.2741 33.6628C23.6131 33.0202 22.7307 32.7387 21.8715 32.4804C15.047 30.4303 8.13653 28.612 1.18314 27.115C0.937299 27.0305 0.668956 27.0399 0.429634 27.1415C0.318918 27.2236 0.226891 27.3284 0.159657 27.4489C0.0924242 27.5694 0.0515216 27.7028 0.0396628 27.8403C-0.0716841 28.558 0.0822663 29.2917 0.472597 29.9037C1.26245 31.2086 2.71659 31.6226 4.05835 31.9107C5.68103 32.2618 7.26735 32.6857 8.8669 33.1494C12.8327 34.3064 16.7908 35.513 20.7412 36.7694C21.4331 36.9313 22.0752 37.2598 22.6117 37.7265C23.1901 38.3161 23.428 39.1805 23.6395 40.0019L25.5729 47.4769C25.8571 48.5765 27.0931 52.733 27.6516 53.7067C28.2101 54.6805 28.1441 52.4714 29.2016 52.6734H29.2776C30.4707 52.8291 26.4652 39.5316 25.6456 36.5707Z" fill="#D19254"/>
<path d="M27.5624 82.4512C30.1633 82.4512 32.2718 80.2092 32.2718 77.4436C32.2718 74.6779 30.1633 72.4359 27.5624 72.4359C24.9615 72.4359 22.853 74.6779 22.853 77.4436C22.853 80.2092 24.9615 82.4512 27.5624 82.4512Z" fill="white"/>
<path d="M30.4368 79.1057C31.4097 77.417 30.9118 75.3037 29.3248 74.3855C27.7378 73.4673 25.6626 74.0918 24.6898 75.7805C23.7169 77.4691 24.2148 79.5824 25.8018 80.5006C27.3888 81.4188 29.464 80.7943 30.4368 79.1057Z" fill="#955724"/>
<path d="M28.9901 79.189C28.7789 79.3872 28.529 79.5394 28.2562 79.6359C27.9834 79.7324 27.6935 79.7711 27.405 79.7496C27.1164 79.7282 26.8355 79.6469 26.5799 79.5111C26.3242 79.3753 26.0995 79.1878 25.9199 78.9604C25.54 78.4885 25.3512 77.8906 25.391 77.2856C25.4308 76.6806 25.6963 76.1127 26.1347 75.6948C26.3459 75.4966 26.5958 75.3444 26.8686 75.2479C27.1414 75.1514 27.4313 75.1127 27.7198 75.1342C28.0084 75.1556 28.2893 75.2369 28.5449 75.3727C28.8006 75.5085 29.0253 75.6961 29.2049 75.9234C29.5848 76.3953 29.7736 76.9932 29.7338 77.5982C29.694 78.2032 29.4285 78.7711 28.9901 79.189Z" fill="#231F20"/>
<path d="M59.2591 82.4512C61.8601 82.4512 63.9685 80.2092 63.9685 77.4436C63.9685 74.6779 61.8601 72.4359 59.2591 72.4359C56.6582 72.4359 54.5497 74.6779 54.5497 77.4436C54.5497 80.2092 56.6582 82.4512 59.2591 82.4512Z" fill="white"/>
<path d="M61.0213 80.5004C62.6083 79.5821 63.1062 77.4688 62.1333 75.7802C61.1605 74.0916 59.0853 73.467 57.4983 74.3853C55.9113 75.3035 55.4135 77.4168 56.3863 79.1054C57.3591 80.794 59.4343 81.4186 61.0213 80.5004Z" fill="#955724"/>
<path d="M57.8348 79.189C58.0459 79.3872 58.2958 79.5394 58.5687 79.6359C58.8415 79.7324 59.1313 79.7711 59.4199 79.7496C59.7084 79.7282 59.9894 79.6469 60.245 79.5111C60.5006 79.3753 60.7253 79.1878 60.905 78.9604C61.2849 78.4885 61.4737 77.8906 61.4339 77.2856C61.3941 76.6806 61.1286 76.1127 60.6901 75.6948C60.479 75.4966 60.2291 75.3444 59.9563 75.2479C59.6834 75.1514 59.3936 75.1127 59.105 75.1342C58.8165 75.1556 58.5355 75.2369 58.2799 75.3727C58.0243 75.5085 57.7996 75.6961 57.6199 75.9234C57.24 76.3953 57.0512 76.9932 57.091 77.5982C57.1308 78.2032 57.3963 78.7711 57.8348 79.189Z" fill="#231F20"/>
<path d="M64.0446 71.2336C62.3393 71.0415 60.1878 71.4622 58.5321 71.9722C57.0534 72.4699 55.7528 73.3911 54.791 74.6218C53.8072 75.8745 53.0571 77.2949 52.5768 78.8147C52.4838 79.0281 52.4551 79.2641 52.4941 79.4937C52.7321 80.3747 53.598 79.1823 53.8723 78.8876C55.1184 77.5347 56.6351 76.4602 58.3236 75.7343C60.012 75.0084 61.8341 74.6474 63.6711 74.6748C65.1748 74.7178 66.6455 75.0358 68.1657 75.0888C68.664 75.1006 69.1625 75.0718 69.6562 75.0027C69.6562 74.1195 69.6386 73.2252 69.6033 72.32C67.7712 71.8583 65.9156 71.4957 64.0446 71.2336Z" fill="#231F20"/>
<path d="M23.0909 71.2336C24.7962 71.0415 26.9477 71.4622 28.6034 71.9722C30.0821 72.4699 31.3827 73.3911 32.3445 74.6218C33.3283 75.8745 34.0784 77.2949 34.5587 78.8147C34.6517 79.0281 34.6804 79.2641 34.6414 79.4937C34.4034 80.3747 33.5375 79.1823 33.2632 78.8876C32.0177 77.5335 30.5012 76.4578 28.8128 75.7307C27.1243 75.0037 25.3019 74.6416 23.4644 74.6681C21.9607 74.7112 20.49 75.0291 18.9698 75.0821C18.4715 75.0939 17.973 75.0651 17.4793 74.996C17.4793 74.1128 17.4969 73.2186 17.5322 72.3133C19.3645 71.8539 21.2201 71.4935 23.0909 71.2336Z" fill="#231F20"/>
<path d="M52.0017 43.1548C46.9288 41.2869 41.1354 41.4293 35.9798 42.9197C35.8972 42.9429 34.9884 43.2111 34.9884 43.2277L43.7627 74.6715L52.0017 43.1548Z" fill="#955724"/>
<path d="M51.4762 93.7285L69.3753 87.7934C69.3753 87.7934 51.5291 115.809 51.4762 115.869C51.4795 115.892 51.4762 93.7285 51.4762 93.7285Z" fill="#955724"/>
<path d="M35.6196 93.7285L17.7206 87.7934C17.7206 87.7934 35.5667 115.809 35.6196 115.869C35.6196 115.892 35.6196 93.7285 35.6196 93.7285Z" fill="#955724"/>
<path d="M47.755 118.631C46.8395 120.618 45.4746 121.754 43.5281 122.036C43.5281 122.019 43.5281 118.426 43.5281 118.442C43.5281 118.376 47.5369 114.961 48.3102 114.137C48.5713 113.859 48.8885 113.223 48.3333 113.117C47.5402 112.961 45.3292 112.968 43.3761 113.007C41.4328 112.964 39.1392 112.961 38.3428 113.117C37.7876 113.223 38.0652 113.862 38.3263 114.137C39.0996 114.961 43.0918 118.376 43.0885 118.442C43.0885 118.426 43.0885 122.019 43.0885 122.036C41.142 121.758 39.7837 120.628 38.855 118.631C38.7162 118.33 38.0949 118.429 38.1247 118.787C38.3461 121.658 41.4295 122.88 43.3827 123.059C45.3259 122.88 48.3399 121.662 48.5614 118.787C48.5812 118.429 47.8905 118.33 47.755 118.631Z" fill="#231F20"/>
</svg>
